<?xml version="1.0" encoding="utf-8"?>
<!-- Generator: Adobe Illustrator 19.2.1, SVG Export Plug-In . SVG Version: 6.00 Build 0)  -->
<svg version="1.1" id="Layer_1" xmlns="http://www.w3.org/2000/svg" xmlns:xlink="http://www.w3.org/1999/xlink" x="0px" y="0px"
	 viewBox="0 0 213 212.7" style="enable-background:new 0 0 213 212.7;" xml:space="preserve">
<style type="text/css">
	.st0{fill:url(#SVGID_1_);}
	.st1{fill:#FDD39B;}
	.st2{fill:#FA835D;}
</style>
<linearGradient id="SVGID_1_" gradientUnits="userSpaceOnUse" x1="149.3321" y1="61.8537" x2="99.8345" y2="234.3451">
	<stop  offset="0.3233" style="stop-color:#FC8357"/>
	<stop  offset="1" style="stop-color:#FC4996"/>
</linearGradient>
<path class="st0" d="M106.5,212.7H1.8c-1.3,0-2.2-1.2-1.7-2.2l52.6-104.8L105.6,0.5c0.4-0.7,1.4-0.7,1.8,0l52.8,105.2l52.6,104.8
	c0.5,1-0.4,2.2-1.7,2.2H106.5z"/>
<rect x="62.3" y="76.9" transform="matrix(0.4414 -0.8973 0.8973 0.4414 8.2485 171.1913)" class="st1" width="158.6" height="4.1"/>
<path class="st2" d="M169.4,22.2l12.9,6.2c0.3,0.2,0.4,0.6,0.1,0.8L170,38.4l-12.3,9.1c-0.3,0.2-0.8,0-0.8-0.4l-0.5-15.2l-0.5-15.5
	c0-0.3,0.4-0.6,0.7-0.4L169.4,22.2z"/>
</svg>
